HIERARCHY
ROOT joint_Root
{
	OFFSET 0.0 0.0 0.0
	CHANNELS 6 Xposition Yposition Zposition Zrotation Xrotation Yrotation 
	JOINT Hips
	{
		OFFSET -17.1583 93.1646 452.98
		CHANNELS 6 Xposition Yposition Zposition Zrotation Xrotation Yrotation 
		JOINT Spine
		{
			OFFSET 15.7357 0.0 0.0
			CHANNELS 6 Xposition Yposition Zposition Zrotation Xrotation Yrotation 
			JOINT Chest
			{
				OFFSET 8.98455 -0.406207 0.0
				CHANNELS 6 Xposition Yposition Zposition Zrotation Xrotation Yrotation 
				JOINT Neck
				{
					OFFSET 16.3773 0.0 0.0
					CHANNELS 6 Xposition Yposition Zposition Zrotation Xrotation Yrotation 
					JOINT Head
					{
						OFFSET 6.45672 0.0 0.0
						CHANNELS 6 Xposition Yposition Zposition Zrotation Xrotation Yrotation 
						End Site
						{
							OFFSET 0.0 0.0 0.0
						}
					}
				}
				JOINT Shoulder_L
				{
					OFFSET 12.9942 -0.242716 4.98039
					CHANNELS 6 Xposition Yposition Zposition Zrotation Xrotation Yrotation 
					JOINT UpperArm_L
					{
						OFFSET 5.34809 0.0 0.0
						CHANNELS 6 Xposition Yposition Zposition Zrotation Xrotation Yrotation 
						JOINT LowerArm_L
						{
							OFFSET 24.3286 1.87007e-05 0.0
							CHANNELS 6 Xposition Yposition Zposition Zrotation Xrotation Yrotation 
							JOINT Hand_L
							{
								OFFSET 22.2916 0.0 0.0
								CHANNELS 6 Xposition Yposition Zposition Zrotation Xrotation Yrotation 
								End Site
								{
									OFFSET 0.0 0.0 0.0
								}
							}
						}
					}
				}
				JOINT Shoulder_R
				{
					OFFSET 12.9945 -0.242716 -4.98039
					CHANNELS 6 Xposition Yposition Zposition Zrotation Xrotation Yrotation 
					JOINT UpperArm_R
					{
						OFFSET -5.34813 0.0 0.0
						CHANNELS 6 Xposition Yposition Zposition Zrotation Xrotation Yrotation 
						JOINT LowerArm_R
						{
							OFFSET -24.3289 0.000322201 0.0
							CHANNELS 6 Xposition Yposition Zposition Zrotation Xrotation Yrotation 
							JOINT Hand_R
							{
								OFFSET -22.2915 -0.000108084 0.0
								CHANNELS 6 Xposition Yposition Zposition Zrotation Xrotation Yrotation 
								End Site
								{
									OFFSET 0.0 0.0 0.0
								}
							}
						}
					}
				}
			}
		}
		JOINT UpperLeg_L
		{
			OFFSET -2.19248 -6.46944 0.0
			CHANNELS 6 Xposition Yposition Zposition Zrotation Xrotation Yrotation 
			JOINT LowerLeg_L
			{
				OFFSET 39.0811 0.0 -1.23785e-05
				CHANNELS 6 Xposition Yposition Zposition Zrotation Xrotation Yrotation 
				JOINT Foot_L
				{
					OFFSET 40.9854 0.0 -1.26872e-05
					CHANNELS 6 Xposition Yposition Zposition Zrotation Xrotation Yrotation 
					JOINT Toes_L
					{
						OFFSET 11.7543 0.0 0.0
						CHANNELS 6 Xposition Yposition Zposition Zrotation Xrotation Yrotation 
						End Site
						{
							OFFSET 0.0 0.0 0.0
						}
					}
				}
			}
		}
		JOINT UpperLeg_R
		{
			OFFSET -2.19251 6.46944 0.0
			CHANNELS 6 Xposition Yposition Zposition Zrotation Xrotation Yrotation 
			JOINT LowerLeg_R
			{
				OFFSET -39.0811 -0.00228153 -0.0401928
				CHANNELS 6 Xposition Yposition Zposition Zrotation Xrotation Yrotation 
				JOINT Foot_R
				{
					OFFSET -40.9854 0.0 0.0
					CHANNELS 6 Xposition Yposition Zposition Zrotation Xrotation Yrotation 
					JOINT Toes_R
					{
						OFFSET -11.7543 0.0 0.0
						CHANNELS 6 Xposition Yposition Zposition Zrotation Xrotation Yrotation 
						End Site
						{
							OFFSET 0.0 0.0 0.0
						}
					}
				}
			}
		}
	}
}
MOTION
Frames:	4
Frame Time:	0.0333333
0.000000 0.000000 0.000000 0.000000 0.000000 -0.000000 -2.051630 93.157100 -3.451510 87.843100 -0.336922 3.325360 15.735700 0.000005 -0.000001 101.754000 87.015700 -100.899000 8.984550 -0.406207 -0.000000 -1.930710 1.143240 1.727680 16.377300 -0.000001 -0.000001 -3.007860 1.295850 -1.742690 6.456720 -0.000001 -0.000000 2.496210 0.470842 0.645258 12.994200 -0.242716 4.980390 -92.356100 7.882270 -73.299500 5.348090 -0.000007 -0.000001 -69.723600 21.655500 -8.130020 24.328600 0.000019 0.000005 5.713670 32.297200 -10.608200 22.291600 -0.000001 0.000005 -17.445800 5.145250 4.048950 12.994500 -0.242716 -4.980390 88.944100 4.227200 -75.961300 -5.348130 -0.000001 -0.000004 -68.215100 34.853600 -9.060930 -24.328900 0.000322 -0.000009 0.190384 0.717630 -14.936100 -22.291500 -0.000108 -0.000004 -16.686500 5.097570 5.176440 -2.192480 -6.469440 -0.000000 -172.505000 -6.599930 -1.566620 39.081100 -0.000007 -0.000012 0.000352 -0.001124 17.411200 40.985400 -0.000006 -0.000013 -1.623990 12.615500 -67.834000 11.754300 -0.000000 0.000003 -0.000082 0.168992 -9.722530 -2.192510 6.469440 -0.000001 178.754000 4.395680 179.603000 -39.081100 -0.002282 -0.040193 0.069371 -0.245529 15.054800 -40.985400 0.000008 0.000006 -2.605020 4.419150 -68.551300 -11.754300 -0.000006 -0.000006 -0.008078 0.256336 -6.162790
0.000000 0.000000 0.000000 0.000000 0.000000 -0.000000 -1.982020 93.159600 -3.197750 87.861200 -0.214143 3.088850 15.735700 0.000005 -0.000001 101.527000 87.129500 -100.689000 8.984550 -0.406207 -0.000000 -2.148340 1.074430 1.694640 16.377300 -0.000001 -0.000001 -4.328470 1.118520 -1.486660 6.456720 -0.000001 -0.000000 1.018320 0.539242 0.383128 12.994200 -0.242716 4.980390 -92.107600 7.262100 -73.768100 5.348090 -0.000007 -0.000001 -66.986300 19.014100 -13.380700 24.328600 0.000019 0.000005 4.800700 38.027800 -7.764620 22.291600 -0.000001 0.000005 -21.749000 5.188460 2.998080 12.994500 -0.242716 -4.980390 89.150100 3.405990 -75.979800 -5.348130 -0.000001 -0.000004 -64.635700 33.696900 -13.742500 -24.328900 0.000322 -0.000009 0.559898 2.104290 -14.929300 -22.291500 -0.000108 -0.000004 -20.631400 5.074440 5.695720 -2.192480 -6.469440 -0.000000 -172.471000 -7.394670 -1.556150 39.081100 -0.000007 -0.000012 -0.004484 0.014439 17.249300 40.985400 -0.000006 -0.000013 -1.465660 13.409200 -67.859700 11.754300 -0.000000 0.000003 -0.000063 0.168674 -9.735440 -2.192510 6.469440 -0.000001 178.607000 4.763990 179.647000 -39.081100 -0.002282 -0.040193 0.064035 -0.228495 14.878300 -40.985400 0.000008 0.000006 -2.926860 4.745610 -68.547500 -11.754300 -0.000006 -0.000006 -0.007780 0.253896 -6.262440
0.000000 0.000000 0.000000 0.000000 0.000000 -0.000000 -1.914670 93.135500 -2.796030 87.877500 -0.433013 3.086080 15.735700 0.000005 -0.000001 102.006000 87.286000 -101.158000 8.984550 -0.406207 -0.000000 -2.464230 1.053020 1.719130 16.377300 -0.000001 -0.000001 -5.309960 1.135750 -1.461340 6.456720 -0.000001 -0.000000 -0.500753 0.661440 0.169979 12.994200 -0.242716 4.980390 -91.858000 6.423010 -73.828500 5.348090 -0.000007 -0.000001 -63.021400 15.896300 -19.023600 24.328600 0.000019 0.000005 4.720470 41.546800 -7.096950 22.291600 -0.000001 0.000005 -24.316300 5.216500 2.300230 12.994500 -0.242716 -4.980390 89.411800 2.301000 -75.655000 -5.348130 -0.000001 -0.000004 -59.941800 31.286100 -19.642300 -24.328900 0.000322 -0.000009 0.906520 3.251670 -15.603300 -22.291500 -0.000108 -0.000004 -23.275300 5.059740 6.023350 -2.192480 -6.469440 -0.000000 -172.462000 -7.800450 -1.218110 39.081100 -0.000007 -0.000012 -0.008878 0.028729 17.171800 40.985400 -0.000006 -0.000013 -1.381640 13.492600 -67.904500 11.754300 -0.000000 0.000003 -0.000529 0.176097 -9.433900 -2.192510 6.469440 -0.000001 178.469000 4.834430 179.895000 -39.081100 -0.002282 -0.040193 0.061215 -0.217930 14.874900 -40.985400 0.000008 0.000006 -3.180060 5.078120 -68.646800 -11.754300 -0.000006 -0.000006 -0.008129 0.256752 -6.145820
0.000000 0.000000 0.000000 0.000000 0.000000 -0.000000 -1.824400 93.096700 -2.260130 87.921100 -0.855336 3.212690 15.735700 0.000005 -0.000001 102.349000 87.549700 -101.473000 8.984550 -0.406207 -0.000000 -2.985790 0.965454 1.778790 16.377300 -0.000001 -0.000001 -5.764920 1.221490 -1.512530 6.456720 -0.000001 -0.000000 -1.981940 0.907719 -0.104790 12.994200 -0.242716 4.980390 -91.619200 5.458230 -73.449200 5.348090 -0.000007 -0.000001 -58.312300 10.877300 -24.855700 24.328600 0.000019 0.000005 4.646800 40.246400 -7.170420 22.291600 -0.000001 0.000005 -23.746200 5.222600 2.146980 12.994500 -0.242716 -4.980390 89.675800 1.223530 -75.156900 -5.348130 -0.000001 -0.000004 -54.263900 26.995500 -26.301000 -24.328900 0.000322 -0.000009 0.940330 3.128000 -16.760200 -22.291500 -0.000108 -0.000004 -23.786700 5.055580 6.114720 -2.192480 -6.469440 -0.000000 -172.562000 -7.501330 -0.602057 39.081100 -0.000007 -0.000012 -0.009932 0.032400 17.041700 40.985400 -0.000006 -0.000013 -1.390410 12.782100 -68.000100 11.754300 -0.000000 0.000003 -0.000996 0.182980 -9.154220 -2.192510 6.469440 -0.000001 178.276000 4.830360 -179.629000 -39.081100 -0.002282 -0.040193 0.060031 -0.214060 14.835800 -40.985400 0.000008 0.000006 -3.153890 5.503680 -68.855800 -11.754300 -0.000006 -0.000006 -0.008483 0.259600 -6.029460
